<svg width="146" height="30" viewBox="0 0 146 30" fill="none" xmlns="http://www.w3.org/2000/svg">
<path d="M143.589 1.99848C144.171 1.99848 144.635 1.56097 144.635 1.01117C144.635 0.461364 144.171 0.0078125 143.589 0.0078125C143.007 0.0078125 142.51 0.459905 142.51 1.01117C142.51 1.56243 142.984 1.99848 143.589 1.99848Z" fill="white"/>
<path d="M140.881 1.99848C141.463 1.99848 141.927 1.56097 141.927 1.01117C141.927 0.461364 141.463 0.0078125 140.881 0.0078125C140.299 0.0078125 139.802 0.459905 139.802 1.01117C139.802 1.56243 140.276 1.99848 140.881 1.99848Z" fill="white"/>
<path d="M145.445 6.71882C145.445 4.5619 144.331 2.77249 142.275 2.77249C140.35 2.77249 139.098 4.3096 139.098 6.05526C139.098 7.45092 139.988 8.46011 141.738 8.46011C142.932 8.46011 143.633 7.98176 144.013 7.42904C143.927 9.10179 142.967 9.30596 141.547 9.30596H138.631C138.108 9.30596 137.758 9.26512 137.524 9.19075C137.632 8.86699 137.692 8.50677 137.692 8.12468C137.692 6.42277 136.441 4.86524 134.474 4.86524C133.012 4.86524 131.648 5.58276 130.405 6.85007C130.688 6.37756 130.95 5.76359 130.95 5.23275V1.54163H129.161V8.3551C128.953 8.65699 128.745 8.96616 128.538 9.3045H127.733C126.86 9.3045 126.272 9.09158 126.272 8.10572V1.45996H124.483V8.73428C124.483 10.6185 125.686 11.4337 127.643 11.4337H133.379C134.71 11.4337 135.718 11.1697 136.423 10.6958C136.775 11.1683 137.398 11.4337 138.529 11.4337H141.412C144.059 11.4337 145.451 10.1241 145.451 6.71736H145.448L145.445 6.71882ZM141.864 6.68236C140.995 6.68236 140.436 6.37319 140.436 5.92547C140.436 5.47775 141.011 4.91191 141.962 4.91191C142.913 4.91191 143.511 5.56671 143.716 6.16902C143.363 6.45048 142.728 6.68382 141.867 6.68382L141.864 6.68236ZM133.648 9.3045H130.009C131.107 8.00801 132.573 6.99299 134.237 6.99299C135.457 6.99299 136.16 7.70322 136.16 8.32302C136.16 9.01283 135.12 9.3045 133.648 9.3045Z" fill="white"/>
<path d="M111.069 5.54242C111.651 5.54242 112.115 5.10492 112.115 4.55511C112.115 4.00531 111.651 3.55176 111.069 3.55176C110.488 3.55176 109.99 4.00385 109.99 4.55511C109.99 5.10637 110.464 5.54242 111.069 5.54242Z" fill="white"/>
<path d="M108.361 5.54242C108.943 5.54242 109.407 5.10492 109.407 4.55511C109.407 4.00531 108.943 3.55176 108.361 3.55176C107.78 3.55176 107.282 4.00385 107.282 4.55511C107.282 5.10637 107.756 5.54242 108.361 5.54242Z" fill="white"/>
<path d="M86.5343 4.50532C87.1161 4.50532 87.5801 4.06781 87.5801 3.518C87.5801 2.9682 87.1161 2.51465 86.5343 2.51465C85.9525 2.51465 85.4551 2.96674 85.4551 3.518C85.4551 4.06926 85.9292 4.50532 86.5343 4.50532Z" fill="white"/>
<path d="M83.8263 4.50532C84.4081 4.50532 84.8721 4.06781 84.8721 3.518C84.8721 2.9682 84.4081 2.51465 83.8263 2.51465C83.2445 2.51465 82.7471 2.96674 82.7471 3.518C82.7471 4.06926 83.2212 4.50532 83.8263 4.50532Z" fill="white"/>
<path d="M61.4414 16.6377V29.9059H70.3079V27.9561H63.6159V24.1133H68.9465V22.2407H63.6159V18.5671H70.081V16.6377H61.4414Z" fill="white"/>
<path d="M74.8281 27.8606C74.6769 27.6973 74.6012 27.4246 74.6012 27.0469V21.9922H76.927V20.194H74.6012V17.4873H72.5403V20.194H70.8574V21.9922H72.5403V27.254C72.5403 28.1494 72.7512 28.8115 73.1744 29.2417C73.5962 29.6719 74.2609 29.9053 75.1685 29.9053H77.1335V28.1071H75.6019C75.2354 28.1071 74.978 28.0254 74.8267 27.8606H74.8281Z" fill="white"/>
<path d="M79.9003 16.1973C79.5469 16.1973 79.2516 16.311 79.0116 16.5371C78.7731 16.7646 78.6523 17.0548 78.6523 17.4077C78.6523 17.7606 78.7731 18.0552 79.0116 18.2871C79.2501 18.5204 79.5469 18.6371 79.9003 18.6371C80.2537 18.6371 80.549 18.5204 80.789 18.2871C81.0275 18.0538 81.1482 17.7606 81.1482 17.4077C81.1482 17.0548 81.0275 16.7646 80.789 16.5371C80.5504 16.3096 80.2537 16.1973 79.9003 16.1973Z" fill="white"/>
<path d="M80.9229 20.1943H78.8809V29.9056H80.9229V20.1943Z" fill="white"/>
<path d="M87.7489 20.0823C86.4501 20.0823 85.4363 20.5928 84.7047 21.6151V16.6377H82.6641V29.9073H84.7047V24.9854C84.7047 24.0141 84.9345 23.247 85.3941 22.6855C85.8537 22.1241 86.4864 21.8441 87.2951 21.8441C88.0514 21.8441 88.6289 22.0832 89.0245 22.563C89.4216 23.0428 89.6194 23.7428 89.6194 24.6645V29.9073H91.66V24.5522C91.66 22.9874 91.2978 21.8513 90.5735 21.1455C89.8477 20.4382 88.9067 20.0853 87.7475 20.0853V20.0823H87.7489Z" fill="white"/>
<path d="M100.707 20.9906C99.9957 20.3854 98.9892 20.082 97.6918 20.082C96.4686 20.082 95.4795 20.3504 94.7247 20.8856C93.9683 21.4223 93.5407 22.1762 93.4374 23.1475H95.4417C95.5174 22.7071 95.7472 22.3556 96.1311 22.0975C96.5151 21.8379 97.0038 21.7081 97.5973 21.7081C98.2532 21.7081 98.7725 21.8671 99.1565 22.1821C99.5404 22.4971 99.7339 22.9273 99.7339 23.4698V24.0561H97.2947C95.9464 24.0561 94.9196 24.3244 94.2141 24.8596C93.5087 25.3963 93.1553 26.1619 93.1553 27.1595C93.1553 28.0549 93.4825 28.7535 94.1385 29.2508C94.7945 29.7495 95.6643 29.9989 96.7478 29.9989C98.1718 29.9989 99.3674 29.4491 100.086 28.3276L100.367 29.907H101.776V23.6025C101.776 22.4679 101.42 21.5958 100.707 20.9906ZM99.7324 25.9111C99.7324 26.668 99.4939 27.2747 99.0139 27.7282C98.5339 28.1832 97.8736 28.4093 97.0286 28.4093C96.4729 28.4093 96.0337 28.2839 95.705 28.0316C95.3763 27.7793 95.2134 27.4453 95.2134 27.0282C95.2134 26.5484 95.3865 26.1867 95.7326 25.9403C96.0788 25.6938 96.5733 25.5713 97.2162 25.5713H99.731V25.9111H99.7324Z" fill="white"/>
<path d="M110.963 21.5577C110.634 21.1027 110.206 20.744 109.677 20.4785C109.147 20.2146 108.523 20.0819 107.805 20.0819C106.935 20.0819 106.154 20.286 105.46 20.6973C104.767 21.1071 104.224 21.6875 103.834 22.4386C103.443 23.1882 103.248 24.0574 103.248 25.0418C103.248 26.0261 103.443 26.9318 103.834 27.6828C104.224 28.4339 104.767 29.0085 105.46 29.4052C106.154 29.8033 106.941 30.0002 107.822 30.0002C109.158 30.0002 110.211 29.4766 110.98 28.4295L111.226 29.9054H113.003V16.6357H110.963V21.5577ZM110.206 27.3883C109.688 27.9818 109.008 28.2779 108.164 28.2779C107.321 28.2779 106.638 27.9774 106.124 27.378C105.606 26.7787 105.348 25.9999 105.348 25.0403C105.348 24.0807 105.607 23.3063 106.124 22.7127C106.64 22.1192 107.321 21.8231 108.164 21.8231C109.008 21.8231 109.69 22.1236 110.206 22.723C110.723 23.3223 110.982 24.1084 110.982 25.0797C110.982 26.0509 110.723 26.7962 110.206 27.3897" fill="white"/>
<path d="M127.613 23.177C128.079 22.5149 128.313 21.742 128.313 20.8582C128.313 19.9744 128.121 19.2715 127.735 18.6342C127.351 17.9969 126.812 17.5054 126.118 17.1569C125.424 16.8098 124.618 16.6377 123.698 16.6377H118.48V29.9059H120.655V25.0802H123.605L126.118 29.9059H128.538L125.741 24.6062C126.522 24.3174 127.146 23.8406 127.613 23.1785V23.177ZM123.529 23.1872H120.656V18.5307H123.529C124.31 18.5307 124.931 18.7421 125.391 19.1636C125.85 19.5865 126.08 20.1509 126.08 20.8582C126.08 21.5655 125.85 22.1299 125.391 22.5528C124.931 22.9757 124.31 23.1872 123.529 23.1872Z" fill="white"/>
<path d="M141.64 20.1943H139.598V29.9056H141.64V20.1943Z" fill="white"/>
<path d="M140.619 16.1973C140.266 16.1973 139.97 16.311 139.73 16.5371C139.492 16.7646 139.371 17.0548 139.371 17.4077C139.371 17.7606 139.492 18.0552 139.73 18.2871C139.969 18.5204 140.266 18.6371 140.619 18.6371C140.972 18.6371 141.268 18.5204 141.508 18.2871C141.746 18.0538 141.867 17.7606 141.867 17.4077C141.867 17.0548 141.746 16.7646 141.508 16.5371C141.269 16.3096 140.972 16.1973 140.619 16.1973Z" fill="white"/>
<path d="M145.423 16.6377H143.381V29.9073H145.423V16.6377Z" fill="white"/>
<path d="M64.7866 11.5579C67.3406 11.5579 68.4664 10.3825 68.4664 8.40785C68.4664 6.43322 66.9974 4.8684 65.1429 3.60254L63.9328 5.18632C65.8963 6.66656 66.9101 7.67137 66.9101 8.48514C66.9101 9.06849 66.2556 9.39078 64.9364 9.39078C63.7393 9.39078 62.8841 9.23037 62.9117 7.93388L61.4514 7.99805C61.3249 9.91142 61.7336 11.555 64.7851 11.555L64.7866 11.5579Z" fill="white"/>
<path d="M85.9028 8.2151C85.9028 8.95449 85.4344 9.30304 84.3697 9.3045C83.3371 9.3045 82.7756 9.16304 82.4876 8.78386H83.4156L83.5872 6.6634H82.0091C81.0884 6.6634 80.8077 6.59923 79.6121 6.00568C78.7918 5.5988 77.9191 5.00233 76.5025 5.00233C75.0858 5.00233 73.9426 5.74755 73.5833 6.25506L74.2378 7.6478C74.6451 7.39842 75.3098 7.0382 76.2959 7.0382C77.3911 7.0382 78.2624 7.41154 79.0856 7.75134C79.2674 7.83155 79.4187 7.90885 79.5627 7.96572C76.7323 9.24179 74.8327 9.3045 73.1906 9.3045H73.1077C72.235 9.3045 71.6489 9.09158 71.6489 8.10572V1.45996H69.8584V8.73428C69.8584 10.6185 71.0613 11.4337 73.0175 11.4337H73.0146H73.0961C75.7825 11.4337 77.6224 11.0443 80.9154 8.78386H81.3095C81.3852 10.4099 81.9538 11.4308 84.2607 11.4337H84.2737C86.4307 11.4279 87.6045 10.1722 87.6045 8.09843V5.49963H85.9028V8.2151Z" fill="white"/>
<path d="M96.5654 8.76054C96.5654 8.00803 96.1363 7.32405 95.4629 6.713C96.2614 6.06549 96.4447 5.4836 96.4447 4.44233V1.46289H94.6426V5.15401C94.6426 5.48214 94.6135 5.69798 94.4273 5.92694C93.1415 5.08255 91.37 4.02961 89.3817 2.80313L88.4043 4.47587C90.3097 5.5886 91.722 6.40966 92.7997 7.08197L89.325 9.36285V11.4323H93.4804C95.396 11.4323 96.5639 10.5602 96.5639 8.75908L96.5654 8.76054ZM93.7393 9.30451H91.4267L93.9357 7.70177C94.612 8.0897 95.1182 8.41929 95.1182 8.81596C95.1182 9.21264 94.5306 9.30451 93.7364 9.30451H93.7393Z" fill="white"/>
<path d="M99.7392 1.45996H97.9502V11.4337H99.7392V1.45996Z" fill="white"/>
<path d="M113.629 4.62793C113.887 5.59045 114.163 6.94527 114.163 7.81737C114.163 8.83677 113.232 9.30344 111.007 9.30344H108.462C106.374 9.30344 105.481 8.70989 105.481 7.44403C105.481 6.86944 105.634 5.80629 105.908 5.09898H104.443C103.978 6.01192 103.767 7.05756 103.767 7.91362C103.767 10.0618 104.959 11.4341 108.303 11.4341H111.023C114.645 11.4341 115.865 9.95096 115.865 7.69049C115.865 6.63901 115.593 5.51753 115.292 4.62793H113.629Z" fill="white"/>
<path d="M119.039 1.45996H117.25V11.4337H119.039V1.45996Z" fill="white"/>
<path d="M136.788 20.9906C136.077 20.3854 135.07 20.082 133.773 20.082C132.55 20.082 131.561 20.3504 130.806 20.8856C130.049 21.4223 129.622 22.1762 129.518 23.1475H131.523C131.598 22.7071 131.828 22.3556 132.212 22.0975C132.596 21.8379 133.085 21.7081 133.678 21.7081C134.334 21.7081 134.854 21.8671 135.238 22.1821C135.621 22.4971 135.815 22.9273 135.815 23.4698V24.0561H133.376C132.027 24.0561 131.001 24.3244 130.295 24.8596C129.59 25.3963 129.236 26.1619 129.236 27.1595C129.236 28.0549 129.564 28.7535 130.22 29.2508C130.876 29.7495 131.745 29.9989 132.829 29.9989C134.253 29.9989 135.448 29.4491 136.167 28.3276L136.448 29.907H137.857V23.6025C137.857 22.4679 137.501 21.5958 136.788 20.9906ZM135.813 25.9111C135.813 26.668 135.575 27.2747 135.095 27.7282C134.615 28.1832 133.955 28.4093 133.11 28.4093C132.554 28.4093 132.115 28.2839 131.786 28.0316C131.457 27.7793 131.294 27.4453 131.294 27.0282C131.294 26.5484 131.468 26.1867 131.814 25.9403C132.16 25.6938 132.654 25.5713 133.297 25.5713H135.812V25.9111H135.813Z" fill="white"/>
<path d="M118.089 14.7256C121.71 14.7256 122.931 13.2425 122.931 10.982V5.50293H121.229V11.1089C121.229 12.1283 120.298 12.595 118.073 12.595H117.251V14.7242H118.09L118.089 14.7256Z" fill="white"/>
<path d="M1.97271e-05 29.9057H9.26796C16.9549 11.4355 33.693 4.56665 33.693 4.56665C42.1581 1.26054 51.2849 1.44429 54.8295 1.73159V0.344683C13.5514 -3.74749 -0.0188885 29.9495 1.97271e-05 29.9057Z" fill="#C10505"/>
<path d="M43.5294 4.03244C47.2775 5.04017 50.0381 8.46878 50.0381 12.5449C50.0381 17.4129 46.1023 21.3593 41.2473 21.3593C36.3922 21.3593 32.4564 17.4129 32.4564 12.5449C32.4564 12.2634 32.471 11.9864 32.4971 11.7122C32.4971 11.7122 28.061 16.7027 26.2705 29.9053L33.012 29.9096C45.5671 29.9096 53.6802 20.3705 54.7637 8.39149L54.8277 3.74223C52.6649 3.57743 48.0135 3.41118 43.5294 4.0339V4.03244Z" fill="white"/>
<path d="M13.0264 29.9059H22.5328C27.0083 11.7799 35.501 5.875 35.6319 5.76562C19.5322 10.9778 13.0264 29.9059 13.0264 29.9059Z" fill="white"/>
</svg>
