<svg width="159" height="32" viewBox="0 0 159 32" fill="none" xmlns="http://www.w3.org/2000/svg">
<path d="M155.992 2.13168C156.624 2.13168 157.128 1.665 157.128 1.07855C157.128 0.492089 156.624 0.00830078 155.992 0.00830078C155.359 0.00830078 154.819 0.490533 154.819 1.07855C154.819 1.66656 155.334 2.13168 155.992 2.13168Z" fill="#2F3033"/>
<path d="M153.049 2.13168C153.681 2.13168 154.185 1.665 154.185 1.07855C154.185 0.492089 153.681 0.00830078 153.049 0.00830078C152.417 0.00830078 151.877 0.490533 151.877 1.07855C151.877 1.66656 152.392 2.13168 153.049 2.13168Z" fill="#2F3033"/>
<path d="M158.008 7.16707C158.008 4.86635 156.797 2.95765 154.563 2.95765C152.473 2.95765 151.112 4.59724 151.112 6.45927C151.112 7.94797 152.079 9.02444 153.98 9.02444C155.277 9.02444 156.039 8.51421 156.451 7.92464C156.358 9.7089 155.315 9.92668 153.773 9.92668H150.605C150.036 9.92668 149.657 9.88312 149.402 9.80379C149.519 9.45845 149.584 9.07422 149.584 8.66665C149.584 6.85128 148.225 5.18992 146.089 5.18992C144.501 5.18992 143.019 5.95526 141.668 7.30707C141.976 6.80306 142.26 6.14816 142.26 5.58192V1.64473H140.317V8.91244C140.091 9.23444 139.865 9.56423 139.64 9.92513H138.765C137.817 9.92513 137.179 9.69801 137.179 8.64643V1.55762H135.235V9.31689C135.235 11.3267 136.542 12.1963 138.667 12.1963H144.899C146.345 12.1963 147.44 11.9147 148.206 11.4092C148.589 11.9132 149.265 12.1963 150.494 12.1963H153.626C156.502 12.1963 158.014 10.7994 158.014 7.16551H158.011L158.008 7.16707ZM154.117 7.12818C153.172 7.12818 152.566 6.79839 152.566 6.32083C152.566 5.84326 153.19 5.23969 154.223 5.23969C155.257 5.23969 155.906 5.93815 156.129 6.58061C155.745 6.88084 155.056 7.12973 154.121 7.12973L154.117 7.12818ZM145.191 9.92513H141.238C142.431 8.54221 144.024 7.45952 145.831 7.45952C147.157 7.45952 147.92 8.21709 147.92 8.87821C147.92 9.61401 146.79 9.92513 145.191 9.92513Z" fill="#2F3033"/>
<path d="M120.663 5.91171C121.295 5.91171 121.8 5.44503 121.8 4.85857C121.8 4.27212 121.295 3.78833 120.663 3.78833C120.031 3.78833 119.491 4.27056 119.491 4.85857C119.491 5.44659 120.006 5.91171 120.663 5.91171Z" fill="#2F3033"/>
<path d="M117.721 5.91171C118.353 5.91171 118.857 5.44503 118.857 4.85857C118.857 4.27212 118.353 3.78833 117.721 3.78833C117.089 3.78833 116.549 4.27056 116.549 4.85857C116.549 5.44659 117.064 5.91171 117.721 5.91171Z" fill="#2F3033"/>
<path d="M94.0086 4.80575C94.6407 4.80575 95.1447 4.33907 95.1447 3.75262C95.1447 3.16616 94.6407 2.68237 94.0086 2.68237C93.3766 2.68237 92.8362 3.16461 92.8362 3.75262C92.8362 4.34063 93.3513 4.80575 94.0086 4.80575Z" fill="#2F3033"/>
<path d="M91.0665 4.80575C91.6985 4.80575 92.2026 4.33907 92.2026 3.75262C92.2026 3.16616 91.6985 2.68237 91.0665 2.68237C90.4344 2.68237 89.894 3.16461 89.894 3.75262C89.894 4.34063 90.4092 4.80575 91.0665 4.80575Z" fill="#2F3033"/>
<path d="M66.7485 17.7468V31.8996H76.3809V29.8197H69.1108V25.7208H74.9019V23.7234H69.1108V19.8049H76.1344V17.7468H66.7485Z" fill="#2F3033"/>
<path d="M81.2917 29.7185C81.1274 29.5442 81.0452 29.2533 81.0452 28.8504V23.4588H83.5718V21.5407H81.0452V18.6536H78.8062V21.5407H76.978V23.4588H78.8062V29.0713C78.8062 30.0265 79.0353 30.7327 79.4951 31.1916C79.9534 31.6505 80.6755 31.8994 81.6615 31.8994H83.7962V29.9814H82.1323C81.7341 29.9814 81.4545 29.8942 81.2901 29.7185H81.2917Z" fill="#2F3033"/>
<path d="M86.8018 17.2769C86.4178 17.2769 86.097 17.3982 85.8363 17.6393C85.5772 17.882 85.446 18.1915 85.446 18.568C85.446 18.9444 85.5772 19.2587 85.8363 19.506C86.0955 19.7549 86.4178 19.8794 86.8018 19.8794C87.1857 19.8794 87.5065 19.7549 87.7672 19.506C88.0264 19.2571 88.1575 18.9444 88.1575 18.568C88.1575 18.1915 88.0264 17.882 87.7672 17.6393C87.5081 17.3966 87.1857 17.2769 86.8018 17.2769Z" fill="#2F3033"/>
<path d="M87.9126 21.5408H85.6941V31.8994H87.9126V21.5408Z" fill="#2F3033"/>
<path d="M95.328 21.4211C93.917 21.4211 92.8156 21.9656 92.0208 23.056V17.7468H89.804V31.9011H92.0208V26.651C92.0208 25.615 92.2705 24.7968 92.7698 24.1978C93.2691 23.5989 93.9565 23.3003 94.835 23.3003C95.6567 23.3003 96.284 23.5554 96.7138 24.0672C97.1451 24.579 97.36 25.3256 97.36 26.3088V31.9011H99.5769V26.189C99.5769 24.5199 99.1835 23.3081 98.3966 22.5551C97.6081 21.8007 96.5858 21.4242 95.3264 21.4242V21.4211H95.328Z" fill="#2F3033"/>
<path d="M109.405 22.3903C108.632 21.7447 107.539 21.4211 106.13 21.4211C104.801 21.4211 103.726 21.7074 102.906 22.2783C102.084 22.8507 101.62 23.655 101.508 24.691H103.685C103.767 24.2212 104.017 23.8463 104.434 23.571C104.851 23.2941 105.382 23.1556 106.027 23.1556C106.739 23.1556 107.304 23.3252 107.721 23.6612C108.138 23.9972 108.348 24.4561 108.348 25.0348V25.6601H105.698C104.233 25.6601 103.118 25.9463 102.351 26.5172C101.585 27.0897 101.201 27.9064 101.201 28.9704C101.201 29.9255 101.557 30.6707 102.269 31.2011C102.982 31.7331 103.927 31.9991 105.104 31.9991C106.651 31.9991 107.95 31.4127 108.73 30.2164L109.035 31.9011H110.566V25.1763C110.566 23.9661 110.179 23.0358 109.405 22.3903ZM108.346 27.6388C108.346 28.4462 108.087 29.0933 107.566 29.5771C107.044 30.0624 106.327 30.3035 105.409 30.3035C104.805 30.3035 104.328 30.1698 103.971 29.9007C103.614 29.6315 103.437 29.2753 103.437 28.8304C103.437 28.3186 103.625 27.9328 104.001 27.6699C104.377 27.407 104.914 27.2764 105.613 27.2764H108.345V27.6388H108.346Z" fill="#2F3033"/>
<path d="M120.546 22.9952C120.189 22.5099 119.725 22.1272 119.15 21.8441C118.574 21.5625 117.897 21.421 117.116 21.421C116.171 21.421 115.323 21.6388 114.569 22.0774C113.815 22.5145 113.226 23.1337 112.802 23.9348C112.377 24.7344 112.166 25.6615 112.166 26.7115C112.166 27.7615 112.377 28.7276 112.802 29.5287C113.226 30.3298 113.815 30.9427 114.569 31.3658C115.323 31.7905 116.177 32.0005 117.135 32.0005C118.586 32.0005 119.73 31.4421 120.565 30.3252L120.832 31.8994H122.763V17.7451H120.546V22.9952ZM119.725 29.2145C119.162 29.8476 118.423 30.1634 117.506 30.1634C116.59 30.1634 115.849 29.8429 115.289 29.2036C114.727 28.5642 114.447 27.7335 114.447 26.71C114.447 25.6864 114.728 24.8604 115.289 24.2273C115.85 23.5941 116.59 23.2783 117.506 23.2783C118.423 23.2783 119.164 23.5988 119.725 24.2381C120.286 24.8775 120.567 25.7159 120.567 26.752C120.567 27.788 120.286 28.5829 119.725 29.216" fill="#2F3033"/>
<path d="M138.636 24.7221C139.141 24.0158 139.396 23.1914 139.396 22.2487C139.396 21.306 139.187 20.5562 138.768 19.8764C138.351 19.1966 137.765 18.6724 137.011 18.3006C136.258 17.9304 135.382 17.7468 134.382 17.7468H128.714V31.8996H131.076V26.7521H134.281L137.011 31.8996H139.641L136.602 26.2466C137.451 25.9386 138.128 25.4299 138.636 24.7236V24.7221ZM134.199 24.733H131.078V19.766H134.199C135.047 19.766 135.722 19.9915 136.221 20.4411C136.721 20.8922 136.97 21.4942 136.97 22.2487C136.97 23.0032 136.721 23.6052 136.221 24.0563C135.722 24.5074 135.047 24.733 134.199 24.733Z" fill="#2F3033"/>
<path d="M153.874 21.5408H151.656V31.8994H153.874V21.5408Z" fill="#2F3033"/>
<path d="M152.765 17.2769C152.381 17.2769 152.06 17.3982 151.799 17.6393C151.54 17.882 151.409 18.1915 151.409 18.568C151.409 18.9444 151.54 19.2587 151.799 19.506C152.059 19.7549 152.381 19.8794 152.765 19.8794C153.149 19.8794 153.47 19.7549 153.73 19.506C153.989 19.2571 154.121 18.9444 154.121 18.568C154.121 18.1915 153.989 17.882 153.73 17.6393C153.471 17.3966 153.149 17.2769 152.765 17.2769Z" fill="#2F3033"/>
<path d="M157.984 17.7468H155.766V31.9011H157.984V17.7468Z" fill="#2F3033"/>
<path d="M70.3827 12.3285C73.1574 12.3285 74.3804 11.0747 74.3804 8.96844C74.3804 6.86217 72.7845 5.19302 70.7699 3.84277L69.4552 5.53214C71.5884 7.11106 72.6897 8.18286 72.6897 9.05088C72.6897 9.67312 71.9786 10.0169 70.5455 10.0169C69.2451 10.0169 68.316 9.84579 68.346 8.46287L66.7595 8.53132C66.6221 10.5722 67.0661 12.3254 70.3812 12.3254L70.3827 12.3285Z" fill="#2F3033"/>
<path d="M93.3228 8.7631C93.3228 9.55178 92.814 9.92357 91.6573 9.92513C90.5354 9.92513 89.9255 9.77423 89.6127 9.36978H90.6208L90.8072 7.10795H89.0928C88.0926 7.10795 87.7876 7.03951 86.4888 6.40638C85.5976 5.97238 84.6495 5.33614 83.1105 5.33614C81.5715 5.33614 80.3295 6.13105 79.9392 6.67239L80.6503 8.15798C81.0927 7.89197 81.8148 7.50774 82.8861 7.50774C84.076 7.50774 85.0224 7.90597 85.9168 8.26842C86.1143 8.35398 86.2786 8.43643 86.4351 8.4971C83.3602 9.85823 81.2965 9.92513 79.5126 9.92513H79.4225C78.4745 9.92513 77.8377 9.69801 77.8377 8.64643V1.55762H75.8926V9.31689C75.8926 11.3267 77.1993 12.1963 79.3246 12.1963H79.3214H79.4099C82.3284 12.1963 84.3272 11.7809 87.9046 9.36978H88.3328C88.4149 11.1043 89.0328 12.1932 91.5388 12.1963H91.553C93.8963 12.1901 95.1715 10.8507 95.1715 8.63865V5.8666H93.3228V8.7631Z" fill="#2F3033"/>
<path d="M104.907 9.34495C104.907 8.54227 104.44 7.8127 103.709 7.16091C104.576 6.47023 104.775 5.84955 104.775 4.73886V1.56079H102.818V5.49798C102.818 5.84799 102.786 6.07822 102.584 6.32245C101.187 5.42176 99.2624 4.29863 97.1024 2.99038L96.0405 4.77464C98.1105 5.96155 99.6448 6.83735 100.816 7.55447L97.0407 9.98741V12.1948H101.555C103.636 12.1948 104.905 11.2646 104.905 9.3434L104.907 9.34495ZM101.836 9.92519H99.324L102.05 8.2156C102.784 8.62938 103.334 8.98095 103.334 9.40407C103.334 9.82719 102.696 9.92519 101.833 9.92519H101.836Z" fill="#2F3033"/>
<path d="M108.354 1.55762H106.411V12.1963H108.354V1.55762Z" fill="#2F3033"/>
<path d="M123.444 4.93652C123.724 5.96321 124.024 7.40835 124.024 8.33859C124.024 9.42595 123.013 9.92374 120.596 9.92374H117.83C115.563 9.92374 114.593 9.29061 114.593 7.94036C114.593 7.32746 114.759 6.19344 115.056 5.43898H113.464C112.959 6.41278 112.73 7.52813 112.73 8.44126C112.73 10.7326 114.025 12.1965 117.658 12.1965H120.613C124.547 12.1965 125.873 10.6144 125.873 8.20326C125.873 7.08168 125.578 5.88543 125.251 4.93652H123.444Z" fill="#2F3033"/>
<path d="M129.321 1.55762H127.377V12.1963H129.321V1.55762Z" fill="#2F3033"/>
<path d="M148.603 22.3903C147.83 21.7447 146.737 21.4211 145.327 21.4211C143.998 21.4211 142.924 21.7074 142.104 22.2783C141.282 22.8507 140.818 23.655 140.705 24.691H142.883C142.965 24.2212 143.215 23.8463 143.632 23.571C144.049 23.2941 144.58 23.1556 145.225 23.1556C145.937 23.1556 146.501 23.3252 146.918 23.6612C147.336 23.9972 147.546 24.4561 147.546 25.0348V25.6601H144.896C143.431 25.6601 142.316 25.9463 141.549 26.5172C140.783 27.0897 140.399 27.9064 140.399 28.9704C140.399 29.9255 140.754 30.6707 141.467 31.2011C142.18 31.7331 143.125 31.9991 144.302 31.9991C145.849 31.9991 147.148 31.4127 147.928 30.2164L148.233 31.9011H149.764V25.1763C149.764 23.9661 149.377 23.0358 148.603 22.3903ZM147.544 27.6388C147.544 28.4462 147.285 29.0933 146.764 29.5771C146.242 30.0624 145.525 30.3035 144.607 30.3035C144.003 30.3035 143.526 30.1698 143.169 29.9007C142.812 29.6315 142.635 29.2753 142.635 28.8304C142.635 28.3186 142.823 27.9328 143.199 27.6699C143.575 27.407 144.112 27.2764 144.811 27.2764H147.543V27.6388H147.544Z" fill="#2F3033"/>
<path d="M128.289 15.7074C132.224 15.7074 133.549 14.1254 133.549 11.7142V5.86987H131.7V11.8496C131.7 12.9369 130.689 13.4347 128.272 13.4347H127.379V15.7059H128.291L128.289 15.7074Z" fill="#2F3033"/>
<path d="M2.14311e-05 31.8994H10.0685C18.4193 12.1979 36.6032 4.87109 36.6032 4.87109C45.7995 1.34457 55.7146 1.54058 59.5654 1.84703V0.367662C14.7219 -3.99732 -0.02052 31.9461 2.14311e-05 31.8994Z" fill="#C10505"/>
<path d="M47.2896 4.30187C51.3615 5.37679 54.3606 9.03397 54.3606 13.3818C54.3606 18.5744 50.0848 22.7838 44.8104 22.7838C39.536 22.7838 35.2602 18.5744 35.2602 13.3818C35.2602 13.0816 35.276 12.7861 35.3045 12.4936C35.3045 12.4936 30.4852 17.8168 28.54 31.8996L35.8638 31.9042C49.5033 31.9042 58.3172 21.7291 59.4944 8.95153L59.5639 3.99231C57.2143 3.81653 52.1611 3.63919 47.2896 4.30343V4.30187Z" fill="#2F3033"/>
<path d="M14.1514 31.8995H24.479C29.3409 12.5651 38.5672 6.26657 38.7094 6.1499C21.2192 11.7096 14.1514 31.8995 14.1514 31.8995Z" fill="#2F3033"/>
</svg>
